<?xml version="1.0" encoding="UTF-8"?>
<svg xmlns="http://www.w3.org/2000/svg" version="1.1" viewBox="0 0 617 408">
  <defs>
    <style>
      .cls-1 {
        display: none;
        fill: #ffcf6e;
      }

      .cls-2 {
        fill: #fff;
      }
    </style>
  </defs>
  <!-- Generator: Adobe Illustrator 28.6.0, SVG Export Plug-In . SVG Version: 1.2.0 Build 709)  -->
  <g>
    <g id="Layer_1">
      <path class="cls-1" d="M87.1,306l140.9,102h119.5l117.5-44,55.8-58,96.1,5.2c0-1.7,0-3.4,0-5.2C617,132.3,479.3,0,311.5,0S0,129.3,0,303s1,2,1,3h86.1Z"/>
      <g>
        <path class="cls-2" d="M164.2,35.7c-8.3,4.3-16.4,9-24.3,13.9v294.6l24.3,17.6V35.7Z"/>
        <path class="cls-2" d="M298.1,408h24.3V.2c-3.6-.1-7.2-.2-10.8-.2s-9,.1-13.4.3v407.7Z"/>
        <path class="cls-2" d="M108.3,321.3l24.3,17.6V54.5c-8.4,5.7-16.5,11.8-24.3,18.2v248.7Z"/>
        <path class="cls-2" d="M195.8,21.5c-8.2,3.2-16.3,6.7-24.3,10.5v335.2l24.3,17.6V21.5Z"/>
        <path class="cls-2" d="M448.8,31.9c-7.9-3.9-16-7.5-24.3-10.7v357.9l24.3-9.1V31.9Z"/>
        <path class="cls-2" d="M417.2,18.4c-7.9-2.9-16-5.4-24.3-7.6v380.2l24.3-9.1V18.4Z"/>
        <path class="cls-2" d="M551.1,307.6l24.3,1.3v-159c-7.3-12.4-15.4-24.3-24.3-35.4v193.1Z"/>
        <path class="cls-2" d="M487.8,340.3l24.3-25.2V73.9c-7.8-6.7-15.8-13-24.3-18.9v285.2Z"/>
        <path class="cls-2" d="M361.3,402.8l24.3-9.1V8.9c-8-1.9-16.1-3.6-24.3-4.9v398.9Z"/>
        <path class="cls-2" d="M227.4,11.1c-8.2,2.2-16.3,4.8-24.3,7.6v371.3l24.3,17.6V11.1Z"/>
        <path class="cls-2" d="M607,226.7c-5.8-22.3-14-43.5-24.3-63.3v146l24.3,1.3v-83.9Z"/>
        <path class="cls-2" d="M480.5,50.1c-7.8-5.1-15.9-9.9-24.3-14.4v331.6l8.8-3.3,15.5-16.1V50.1Z"/>
        <path class="cls-2" d="M259,4.3c-8.2,1.3-16.3,3-24.3,4.9v398.8h24.3V4.3Z"/>
        <path class="cls-2" d="M543.7,105.6c-7.6-8.8-15.7-17.2-24.3-25.1v226.9l1.3-1.4,22.9,1.2V105.6Z"/>
        <path class="cls-2" d="M614.4,264.9v46.1h2.6c0-1.6,0-3.3,0-5,0-14-.9-27.7-2.6-41.1Z"/>
        <path class="cls-2" d="M100.9,79c-8.5,7.5-16.6,15.5-24.3,24v203h10.4l13.8,10V79Z"/>
        <path class="cls-2" d="M353.9,2.9c-8-1.1-16.1-1.9-24.3-2.3v407.5h17.8l6.4-2.4V2.9Z"/>
        <path class="cls-2" d="M69.3,111.4c-8.8,10.5-16.9,21.6-24.3,33.3v161.2h24.3V111.4Z"/>
        <path class="cls-2" d="M290.7.7c-8.2.5-16.2,1.3-24.3,2.5v404.8h24.3V.7Z"/>
        <path class="cls-2" d="M13.4,306h24.3v-148.8c-9.9,17.7-18.1,36.6-24.3,56.5v92.3Z"/>
        <path class="cls-2" d="M6,242.6c-3.9,19.4-6,39.5-6,60.4s1,2,1,3h5v-63.4Z"/>
      </g>
    </g>
  </g>
</svg>