<?xml version="1.0" encoding="UTF-8"?>
<svg xmlns="http://www.w3.org/2000/svg" version="1.1" viewBox="0 0 169 151.6">
  <defs>
    <style>
      .cls-1 {
        fill: #ffe200;
      }
    </style>
  </defs>
  <!-- Generator: Adobe Illustrator 28.6.0, SVG Export Plug-In . SVG Version: 1.2.0 Build 709)  -->
  <g>
    <g id="Layer_1">
      <path class="cls-1" d="M49.5,69.7c-2.8,10.1-6.7,25.3-11.8,45.7-1.2,7-2.3,14.1-3.5,21-2.6,8.8-7.3,13.3-14.1,13.3s-7.7-1.5-10.2-4.4c-2.1-2.5-3.2-5.5-3.2-8.9,0-10.1,2.1-22.4,6.5-36.9,6.4-21.8,9.9-33.8,10.4-36.2,1.8-9.6,3.6-19.2,5.5-28.8,2.8-13.2,5.8-22,9.1-26.4,3.3-4.4,7.4-6.6,12.4-6.6s9.8,2.9,12.5,8.6c2.5,5.4,5.2,16.5,8,33.3,2.7,16.3,6.8,33.8,12.2,52.5,7.1-18.5,13.7-38.8,19.8-61l5.2-21.5C111.8,4.6,117,.2,124.1.2s11.8,5.2,15.1,15.5c1.4,4.2,2.8,12,4.4,23.4,3.6,26.6,8.2,49.3,13.6,68.2,5.5,19.3,8.3,29.7,8.3,31.4,0,3.7-1.5,6.8-4.4,9.3-2.7,2.2-5.8,3.4-9.3,3.4-6.8,0-11.8-4.9-15.1-14.6l-5.2-22.6c-3-11.2-6.2-27.3-9.7-48.3-2.8,8.4-7.4,21.5-13.9,39.4l-5.6,17.2c-2.3,6.8-4.7,12.4-7.2,16.7-3.3,5.8-7.9,8.7-13.8,8.7s-10.3-3.5-13.5-10.4l-5.2-17.4c-4.9-16-9.2-32.7-13.1-50.3Z"/>
    </g>
  </g>
</svg>